STARTFONT 2.1
FONT -Hewlett Packard-User-Medium-R-Normal-Serif-19-170-72-72-M-110-HP-WA
SIZE 17 72 72
FONTBOUNDINGBOX 21 21 0 -6

STARTPROPERTIES 26
COPYRIGHT "(c)Copyright 1991, Hewlett Packard Company"
NOTICE "Hewlett Packard Co., 3000 Hanover St., Palo Alto, CA 94303, USA"
FONTNAME_REGISTRY ""
FOUNDRY "Hewlett Packard"
FAMILY_NAME "User"
WEIGHT_NAME "Medium"
SLANT "R"
ADD_STYLE_NAME "Serif"
SETWIDTH_NAME "Normal"
PIXEL_SIZE 19
POINT_SIZE 170
RESOLUTION_X 72
RESOLUTION_Y 72
SPACING "M"
AVERAGE_WIDTH 110
CHARSET_REGISTRY "HP"
CHARSET_ENCODING "WA"
CHARSET_COLLECTIONS "HP-WA"
FULL_NAME "User11x19"
CAP_HEIGHT 12
X_HEIGHT 8
WEIGHT 10
QUAD_WIDTH 11
DEFAULT_CHAR 32
FONT_DESCENT 6
FONT_ASCENT 13
ENDPROPERTIES

CHARS 235

STARTCHAR Kasratan
ENCODING 16
SWIDTH 917 0
DWIDTH 11 0
BBX 11 19 0 -6
BITMAP
0000
0000
0000
0000
0000
0000
0000
0000
0000
0000
0200
0400
0400
0400
0E00
33E0
CDE0
3000
C000
ENDCHAR

STARTCHAR Desc
ENCODING 17
SWIDTH 917 0
DWIDTH 11 0
BBX 11 19 0 -6
BITMAP
0000
00C0
0300
0C40
0140
0540
0580
0600
0000
0000
0200
0400
0400
0400
0600
03E0
01E0
0000
0000
ENDCHAR

STARTCHAR Desc
ENCODING 18
SWIDTH 917 0
DWIDTH 11 0
BBX 11 19 0 -6
BITMAP
0300
0500
0700
0380
0E00
3880
0280
0A80
0B00
0C00
0200
0400
0400
0400
0600
03E0
01E0
0000
0000
ENDCHAR

STARTCHAR Desc
ENCODING 19
SWIDTH 917 0
DWIDTH 11 0
BBX 11 19 0 -6
BITMAP
0000
0040
0140
0540
0580
0660
0180
0600
0000
0000
0200
0400
0400
0400
0600
03E0
01E0
0000
0000
ENDCHAR

STARTCHAR Desc
ENCODING 20
SWIDTH 917 0
DWIDTH 11 0
BBX 11 19 0 -6
BITMAP
0000
0000
0000
0000
0060
0180
0600
0000
0000
0000
0200
0400
0400
0400
0600
03E0
01E0
0000
0000
ENDCHAR

STARTCHAR Desc
ENCODING 21
SWIDTH 917 0
DWIDTH 11 0
BBX 11 19 0 -6
BITMAP
0000
00C0
0140
01C0
00E0
0380
0E00
0000
0000
0000
0200
0400
0400
0400
0600
03E0
01E0
0000
0000
ENDCHAR

STARTCHAR Kasra
ENCODING 22
SWIDTH 917 0
DWIDTH 11 0
BBX 11 19 0 -6
BITMAP
0000
0000
0000
0000
0000
0000
0000
0000
0000
0000
0200
0400
0400
0400
0600
03E0
0DE0
3000
C000
ENDCHAR

STARTCHAR Desc
ENCODING 23
SWIDTH 917 0
DWIDTH 11 0
BBX 11 19 0 -6
BITMAP
0000
0000
00C0
0120
0120
00C0
0000
0000
0000
0000
0200
0400
0400
0400
0600
03E0
01E0
0000
0000
ENDCHAR

STARTCHAR Desc
ENCODING 24
SWIDTH 917 0
DWIDTH 11 0
BBX 11 19 0 -6
BITMAP
0000
0000
0020
00A0
02A0
02C0
0300
0000
0000
0000
0200
0400
0400
0400
0600
03E0
01E0
0000
0000
ENDCHAR

STARTCHAR Ain
ENCODING 25
SWIDTH 917 0
DWIDTH 11 0
BBX 11 19 0 -6
BITMAP
0000
0000
0000
0000
0000
0000
0000
0E00
1F00
1F00
0E00
1BE0
31E0
6000
6000
6000
7040
3F80
0F00
ENDCHAR

STARTCHAR Intl
ENCODING 26
SWIDTH 917 0
DWIDTH 11 0
BBX 11 19 0 -6
BITMAP
0000
0200
0600
0E00
0600
0600
0600
0600
0600
0600
0E00
FC00
F800
0000
0000
0000
0000
0000
0000
ENDCHAR

STARTCHAR Lam
ENCODING 28
SWIDTH 917 0
DWIDTH 11 0
BBX 11 19 0 -6
BITMAP
0000
0080
C180
E180
F180
5B80
0B80
0F80
0D80
0D80
09C0
10E0
2060
C000
0000
0000
0000
0000
0000
ENDCHAR

STARTCHAR Heh
ENCODING 29
SWIDTH 917 0
DWIDTH 11 0
BBX 11 19 0 -6
BITMAP
0000
0000
0100
0100
0300
0700
0F00
1900
3180
3980
3FC0
1EE0
0060
0000
0000
0000
0000
0000
0000
ENDCHAR

STARTCHAR PrintableSpace
ENCODING 32
SWIDTH 917 0
DWIDTH 11 0
BBX 11 19 0 -6
BITMAP
0000
0000
0000
0000
0000
0000
0000
0000
0000
0000
0000
0000
0000
0000
0000
0000
0000
0000
0000
ENDCHAR

STARTCHAR Exclamation
ENCODING 33
SWIDTH 917 0
DWIDTH 11 0
BBX 7 19 4 -4
BITMAP
00
00
60
60
60
60
60
60
60
60
60
00
00
60
F0
60
00
00
00
ENDCHAR

STARTCHAR NeutrlDblQuote
ENCODING 34
SWIDTH 917 0
DWIDTH 11 0
BBX 9 19 2 -4
BITMAP
0000
0000
6C00
6C00
6C00
6C00
6C00
0000
0000
0000
0000
0000
0000
0000
0000
0000
0000
0000
0000
ENDCHAR

STARTCHAR NumberSign
ENCODING 35
SWIDTH 917 0
DWIDTH 11 0
BBX 10 19 1 -4
BITMAP
0000
0000
3300
3300
3300
FFC0
FFC0
3300
3300
3300
FFC0
FFC0
3300
3300
3300
3300
0000
0000
0000
ENDCHAR

STARTCHAR DollarSign
ENCODING 36
SWIDTH 917 0
DWIDTH 11 0
BBX 9 19 2 -4
BITMAP
0000
0000
1800
3F00
6300
C100
C000
E000
7800
1E00
0700
0300
8300
C600
FC00
1800
0000
0000
0000
ENDCHAR

STARTCHAR PerCentSign
ENCODING 37
SWIDTH 917 0
DWIDTH 11 0
BBX 11 19 0 -4
BITMAP
0000
0000
78C0
CCC0
CD80
CD80
7B00
0600
0600
0C00
0C00
1BC0
3660
3660
6660
63C0
0000
0000
0000
ENDCHAR

STARTCHAR Ampersand
ENCODING 38
SWIDTH 917 0
DWIDTH 11 0
BBX 9 19 2 -4
BITMAP
0000
0000
3800
6C00
4400
4400
4400
6C00
3800
7B80
CD00
CD00
C700
C200
6700
3D80
0000
0000
0000
ENDCHAR

STARTCHAR SingleCloseQut
ENCODING 39
SWIDTH 917 0
DWIDTH 11 0
BBX 8 19 3 -4
BITMAP
00
00
70
70
70
30
60
C0
00
00
00
00
00
00
00
00
00
00
00
ENDCHAR

STARTCHAR OpenParen
ENCODING 40
SWIDTH 917 0
DWIDTH 11 0
BBX 8 19 3 -4
BITMAP
00
00
18
30
60
60
C0
C0
C0
C0
C0
C0
60
60
30
18
00
00
00
ENDCHAR

STARTCHAR CloseParen
ENCODING 41
SWIDTH 917 0
DWIDTH 11 0
BBX 8 19 3 -4
BITMAP
00
00
C0
60
30
30
18
18
18
18
18
18
30
30
60
C0
00
00
00
ENDCHAR

STARTCHAR Asterisk
ENCODING 42
SWIDTH 917 0
DWIDTH 11 0
BBX 9 19 2 -4
BITMAP
0000
0000
0000
0000
0000
1800
DB00
DB00
3C00
3C00
DB00
DB00
1800
0000
0000
0000
0000
0000
0000
ENDCHAR

STARTCHAR PlusSign
ENCODING 43
SWIDTH 917 0
DWIDTH 11 0
BBX 10 19 1 -4
BITMAP
0000
0000
0000
0000
0C00
0C00
0C00
0C00
FFC0
FFC0
0C00
0C00
0C00
0C00
0000
0000
0000
0000
0000
ENDCHAR

STARTCHAR Comma
ENCODING 44
SWIDTH 917 0
DWIDTH 11 0
BBX 8 19 3 -4
BITMAP
00
00
00
00
00
00
00
00
00
00
00
00
70
70
70
30
60
C0
00
ENDCHAR

STARTCHAR Hyphen
ENCODING 45
SWIDTH 917 0
DWIDTH 11 0
BBX 10 19 1 -4
BITMAP
0000
0000
0000
0000
0000
0000
0000
0000
FFC0
FFC0
0000
0000
0000
0000
0000
0000
0000
0000
0000
ENDCHAR

STARTCHAR Period
ENCODING 46
SWIDTH 917 0
DWIDTH 11 0
BBX 7 19 4 -4
BITMAP
00
00
00
00
00
00
00
00
00
00
00
00
E0
E0
E0
00
00
00
00
ENDCHAR

STARTCHAR Slash
ENCODING 47
SWIDTH 917 0
DWIDTH 11 0
BBX 10 19 1 -4
BITMAP
0000
0000
0300
0300
0600
0600
0C00
0C00
1800
1800
3000
3000
6000
6000
C000
C000
0000
0000
0000
ENDCHAR

STARTCHAR Zero
ENCODING 48
SWIDTH 917 0
DWIDTH 11 0
BBX 10 19 1 -4
BITMAP
0000
0000
0000
1C00
6300
6300
C180
C180
C980
C980
C180
C180
6300
6300
1C00
0000
0000
0000
0000
ENDCHAR

STARTCHAR One
ENCODING 49
SWIDTH 917 0
DWIDTH 11 0
BBX 9 19 2 -4
BITMAP
0000
0000
0000
1800
7800
D800
1800
1800
1800
1800
1800
1800
1800
1800
1800
0000
0000
0000
0000
ENDCHAR

STARTCHAR Two
ENCODING 50
SWIDTH 917 0
DWIDTH 11 0
BBX 9 19 2 -4
BITMAP
0000
0000
0000
3C00
6600
C300
C300
0300
0600
0C00
1800
3000
6000
C100
FF00
0000
0000
0000
0000
ENDCHAR

STARTCHAR Three
ENCODING 51
SWIDTH 917 0
DWIDTH 11 0
BBX 9 19 2 -4
BITMAP
0000
0000
0000
3C00
6600
C300
0300
0600
1C00
0600
0300
0300
0300
C600
7C00
0000
0000
0000
0000
ENDCHAR

STARTCHAR Four
ENCODING 52
SWIDTH 917 0
DWIDTH 11 0
BBX 9 19 2 -4
BITMAP
0000
0000
0000
0800
1800
1000
3000
2600
6600
4600
C600
FF00
0600
0600
0600
0000
0000
0000
0000
ENDCHAR

STARTCHAR Five
ENCODING 53
SWIDTH 917 0
DWIDTH 11 0
BBX 9 19 2 -4
BITMAP
0000
0000
0000
7F00
6000
6000
6000
7C00
0600
0300
0300
0300
0300
C600
7C00
0000
0000
0000
0000
ENDCHAR

STARTCHAR Six
ENCODING 54
SWIDTH 917 0
DWIDTH 11 0
BBX 9 19 2 -4
BITMAP
0000
0000
0000
0E00
3000
6000
4000
DC00
E600
C300
C300
C300
C300
6600
3C00
0000
0000
0000
0000
ENDCHAR

STARTCHAR Seven
ENCODING 55
SWIDTH 917 0
DWIDTH 11 0
BBX 9 19 2 -4
BITMAP
0000
0000
0000
FF00
0300
0600
0600
0C00
0C00
1800
1800
1800
3000
3000
3000
0000
0000
0000
0000
ENDCHAR

STARTCHAR Eight
ENCODING 56
SWIDTH 917 0
DWIDTH 11 0
BBX 9 19 2 -4
BITMAP
0000
0000
0000
3C00
6600
C300
C300
6600
3C00
6600
C300
C300
C300
6600
3C00
0000
0000
0000
0000
ENDCHAR

STARTCHAR Nine
ENCODING 57
SWIDTH 917 0
DWIDTH 11 0
BBX 9 19 2 -4
BITMAP
0000
0000
0000
3C00
6600
C300
C300
C300
C300
6700
3B00
0200
0600
0C00
7000
0000
0000
0000
0000
ENDCHAR

STARTCHAR Colon
ENCODING 58
SWIDTH 917 0
DWIDTH 11 0
BBX 7 19 4 -4
BITMAP
00
00
00
00
00
00
00
E0
E0
E0
00
00
E0
E0
E0
00
00
00
00
ENDCHAR

STARTCHAR Simicolon
ENCODING 59
SWIDTH 917 0
DWIDTH 11 0
BBX 8 19 3 -4
BITMAP
00
00
00
00
00
00
00
70
70
70
00
00
70
70
70
30
60
C0
00
ENDCHAR

STARTCHAR LessThanSign
ENCODING 60
SWIDTH 917 0
DWIDTH 11 0
BBX 10 19 1 -4
BITMAP
0000
0000
0000
0000
00C0
03C0
0F00
3C00
F000
F000
3C00
0F00
03C0
00C0
0000
0000
0000
0000
0000
ENDCHAR

STARTCHAR EqualsSign
ENCODING 61
SWIDTH 917 0
DWIDTH 11 0
BBX 10 19 1 -4
BITMAP
0000
0000
0000
0000
0000
0000
FFC0
FFC0
0000
0000
FFC0
FFC0
0000
0000
0000
0000
0000
0000
0000
ENDCHAR

STARTCHAR GreatrThanSign
ENCODING 62
SWIDTH 917 0
DWIDTH 11 0
BBX 10 19 1 -4
BITMAP
0000
0000
0000
0000
C000
F000
3C00
0F00
03C0
03C0
0F00
3C00
F000
C000
0000
0000
0000
0000
0000
ENDCHAR

STARTCHAR QuestionMark
ENCODING 63
SWIDTH 917 0
DWIDTH 11 0
BBX 9 19 2 -4
BITMAP
0000
0000
7C00
CE00
C700
C700
0700
0E00
1C00
3000
3000
0000
0000
3000
7800
3000
0000
0000
0000
ENDCHAR

STARTCHAR CommerclAtSign
ENCODING 64
SWIDTH 917 0
DWIDTH 11 0
BBX 10 19 1 -4
BITMAP
0000
0000
1E00
7380
6180
C0C0
CE40
DB40
DB40
DB40
DB40
CD80
C000
60C0
7180
1F00
0000
0000
0000
ENDCHAR

STARTCHAR A
ENCODING 65
SWIDTH 917 0
DWIDTH 11 0
BBX 10 19 1 -4
BITMAP
0000
0000
0000
0C00
0C00
1E00
1E00
1200
3300
2300
3F00
6180
4180
4080
E1C0
0000
0000
0000
0000
ENDCHAR

STARTCHAR B
ENCODING 66
SWIDTH 917 0
DWIDTH 11 0
BBX 10 19 1 -4
BITMAP
0000
0000
0000
FE00
6300
6300
6300
6600
7E00
6300
6180
6180
6180
6300
FE00
0000
0000
0000
0000
ENDCHAR

STARTCHAR C
ENCODING 67
SWIDTH 917 0
DWIDTH 11 0
BBX 10 19 1 -4
BITMAP
0000
0000
0000
1F80
7180
6180
C000
C000
C000
C000
C000
C000
6080
7180
1F00
0000
0000
0000
0000
ENDCHAR

STARTCHAR D
ENCODING 68
SWIDTH 917 0
DWIDTH 11 0
BBX 10 19 1 -4
BITMAP
0000
0000
0000
FE00
6380
6180
60C0
60C0
60C0
60C0
60C0
60C0
6180
6380
FE00
0000
0000
0000
0000
ENDCHAR

STARTCHAR E
ENCODING 69
SWIDTH 917 0
DWIDTH 11 0
BBX 9 19 2 -4
BITMAP
0000
0000
0000
FF00
6100
6100
6000
6400
7C00
6400
6000
6000
6100
6100
FF00
0000
0000
0000
0000
ENDCHAR

STARTCHAR F
ENCODING 70
SWIDTH 917 0
DWIDTH 11 0
BBX 9 19 2 -4
BITMAP
0000
0000
0000
FF00
6100
6100
6000
6400
7C00
6400
6000
6000
6000
6000
F800
0000
0000
0000
0000
ENDCHAR

STARTCHAR G
ENCODING 71
SWIDTH 917 0
DWIDTH 11 0
BBX 10 19 1 -4
BITMAP
0000
0000
0000
1F80
7180
6180
C000
C000
C000
C000
C3C0
C180
6180
7380
1E00
0000
0000
0000
0000
ENDCHAR

STARTCHAR H
ENCODING 72
SWIDTH 917 0
DWIDTH 11 0
BBX 10 19 1 -4
BITMAP
0000
0000
0000
F3C0
6180
6180
6180
6180
7F80
6180
6180
6180
6180
6180
F3C0
0000
0000
0000
0000
ENDCHAR

STARTCHAR I
ENCODING 73
SWIDTH 917 0
DWIDTH 11 0
BBX 8 19 3 -4
BITMAP
00
00
00
FC
30
30
30
30
30
30
30
30
30
30
FC
00
00
00
00
ENDCHAR

STARTCHAR J
ENCODING 74
SWIDTH 917 0
DWIDTH 11 0
BBX 10 19 1 -4
BITMAP
0000
0000
0000
0F80
0300
0300
0300
0300
0300
0300
0300
C300
C300
6600
3C00
0000
0000
0000
0000
ENDCHAR

STARTCHAR K
ENCODING 75
SWIDTH 917 0
DWIDTH 11 0
BBX 10 19 1 -4
BITMAP
0000
0000
0000
F3C0
6180
6300
6600
6C00
7C00
7600
6600
6300
6300
6180
F1C0
0000
0000
0000
0000
ENDCHAR

STARTCHAR L
ENCODING 76
SWIDTH 917 0
DWIDTH 11 0
BBX 10 19 1 -4
BITMAP
0000
0000
0000
F000
6000
6000
6000
6000
6000
6000
6000
6000
6080
6080
FF80
0000
0000
0000
0000
ENDCHAR

STARTCHAR M
ENCODING 77
SWIDTH 917 0
DWIDTH 11 0
BBX 11 19 0 -4
BITMAP
0000
0000
0000
E0E0
60C0
71C0
71C0
7BC0
6AC0
6EC0
64C0
64C0
60C0
60C0
F1E0
0000
0000
0000
0000
ENDCHAR

STARTCHAR N
ENCODING 78
SWIDTH 917 0
DWIDTH 11 0
BBX 10 19 1 -4
BITMAP
0000
0000
0000
E3C0
7180
7180
7980
6980
6D80
6580
6780
6380
6380
6180
F180
0000
0000
0000
0000
ENDCHAR

STARTCHAR O
ENCODING 79
SWIDTH 917 0
DWIDTH 11 0
BBX 10 19 1 -4
BITMAP
0000
0000
0000
1E00
7380
6180
C0C0
C0C0
C0C0
C0C0
C0C0
C0C0
6180
7380
1E00
0000
0000
0000
0000
ENDCHAR

STARTCHAR P
ENCODING 80
SWIDTH 917 0
DWIDTH 11 0
BBX 10 19 1 -4
BITMAP
0000
0000
0000
FE00
6300
6180
6180
6180
6300
7E00
6000
6000
6000
6000
F800
0000
0000
0000
0000
ENDCHAR

STARTCHAR Q
ENCODING 81
SWIDTH 917 0
DWIDTH 11 0
BBX 10 19 1 -4
BITMAP
0000
0000
0000
1E00
7380
6180
C0C0
C0C0
C0C0
C0C0
C0C0
C0C0
6180
7B80
1E00
0600
0300
0180
0000
ENDCHAR

STARTCHAR R
ENCODING 82
SWIDTH 917 0
DWIDTH 11 0
BBX 10 19 1 -4
BITMAP
0000
0000
0000
FE00
6300
6300
6300
6300
7E00
6600
6600
6300
6300
6180
F1C0
0000
0000
0000
0000
ENDCHAR

STARTCHAR S
ENCODING 83
SWIDTH 917 0
DWIDTH 11 0
BBX 9 19 2 -4
BITMAP
0000
0000
0000
3F00
6300
C100
C000
E000
7800
1E00
0700
0300
8300
C600
FC00
0000
0000
0000
0000
ENDCHAR

STARTCHAR T
ENCODING 84
SWIDTH 917 0
DWIDTH 11 0
BBX 10 19 1 -4
BITMAP
0000
0000
0000
FFC0
8C40
8C40
0C00
0C00
0C00
0C00
0C00
0C00
0C00
0C00
3F00
0000
0000
0000
0000
ENDCHAR

STARTCHAR U
ENCODING 85
SWIDTH 917 0
DWIDTH 11 0
BBX 10 19 1 -4
BITMAP
0000
0000
0000
F3C0
6180
6180
6180
6180
6180
6180
6180
6180
6180
3300
1E00
0000
0000
0000
0000
ENDCHAR

STARTCHAR V
ENCODING 86
SWIDTH 917 0
DWIDTH 11 0
BBX 10 19 1 -4
BITMAP
0000
0000
0000
F3C0
6180
6180
3100
3300
3300
1A00
1A00
1E00
0C00
0C00
0C00
0000
0000
0000
0000
ENDCHAR

STARTCHAR W
ENCODING 87
SWIDTH 917 0
DWIDTH 11 0
BBX 11 19 0 -4
BITMAP
0000
0000
0000
F1E0
60C0
60C0
64C0
64C0
6EC0
6EC0
3B80
3B80
3180
3180
3180
0000
0000
0000
0000
ENDCHAR

STARTCHAR X
ENCODING 88
SWIDTH 917 0
DWIDTH 11 0
BBX 10 19 1 -4
BITMAP
0000
0000
0000
F3C0
6180
3300
3200
1E00
0C00
1E00
1600
3300
3300
6180
F3C0
0000
0000
0000
0000
ENDCHAR

STARTCHAR Y
ENCODING 89
SWIDTH 917 0
DWIDTH 11 0
BBX 10 19 1 -4
BITMAP
0000
0000
0000
F3C0
6180
3100
3300
1A00
1E00
0C00
0C00
0C00
0C00
0C00
3F00
0000
0000
0000
0000
ENDCHAR

STARTCHAR Z
ENCODING 90
SWIDTH 917 0
DWIDTH 11 0
BBX 9 19 2 -4
BITMAP
0000
0000
0000
FF00
8300
8600
0C00
0C00
1800
3000
3000
6000
C100
C100
FF00
0000
0000
0000
0000
ENDCHAR

STARTCHAR OpenBracket
ENCODING 91
SWIDTH 917 0
DWIDTH 11 0
BBX 7 19 4 -4
BITMAP
00
00
F8
C0
C0
C0
C0
C0
C0
C0
C0
C0
C0
C0
C0
F8
00
00
00
ENDCHAR

STARTCHAR BackSlash
ENCODING 92
SWIDTH 917 0
DWIDTH 11 0
BBX 10 19 1 -4
BITMAP
0000
0000
6000
6000
3000
3000
1800
1800
0C00
0C00
0600
0600
0300
0300
0180
0180
0000
0000
0000
ENDCHAR

STARTCHAR CloseBracket
ENCODING 93
SWIDTH 917 0
DWIDTH 11 0
BBX 8 19 3 -4
BITMAP
00
00
F8
18
18
18
18
18
18
18
18
18
18
18
18
F8
00
00
00
ENDCHAR

STARTCHAR Circumflex
ENCODING 94
SWIDTH 917 0
DWIDTH 11 0
BBX 9 19 2 -4
BITMAP
0000
0000
0000
1000
3800
6C00
8200
0000
0000
0000
0000
0000
0000
0000
0000
0000
0000
0000
0000
ENDCHAR

STARTCHAR Underscore
ENCODING 95
SWIDTH 917 0
DWIDTH 11 0
BBX 11 19 0 -4
BITMAP
0000
0000
0000
0000
0000
0000
0000
0000
0000
0000
0000
0000
0000
0000
0000
FFE0
FFE0
0000
0000
ENDCHAR

STARTCHAR SingleOpenQuot
ENCODING 96
SWIDTH 917 0
DWIDTH 11 0
BBX 7 19 4 -4
BITMAP
00
00
30
60
C0
E0
E0
E0
00
00
00
00
00
00
00
00
00
00
00
ENDCHAR

STARTCHAR a
ENCODING 97
SWIDTH 917 0
DWIDTH 11 0
BBX 9 19 2 -4
BITMAP
0000
0000
0000
0000
0000
0000
0000
3E00
6300
0300
3F00
6300
C300
C700
7B80
0000
0000
0000
0000
ENDCHAR

STARTCHAR b
ENCODING 98
SWIDTH 917 0
DWIDTH 11 0
BBX 10 19 1 -4
BITMAP
0000
0000
0000
6000
E000
6000
6000
6E00
7300
6180
6180
6180
6180
7300
6E00
0000
0000
0000
0000
ENDCHAR

STARTCHAR c
ENCODING 99
SWIDTH 917 0
DWIDTH 11 0
BBX 9 19 2 -4
BITMAP
0000
0000
0000
0000
0000
0000
0000
3F00
6300
C300
C000
C000
C000
6300
3E00
0000
0000
0000
0000
ENDCHAR

STARTCHAR d
ENCODING 100
SWIDTH 917 0
DWIDTH 11 0
BBX 9 19 2 -4
BITMAP
0000
0000
0000
0300
0700
0300
0300
3B00
6700
C300
C300
C300
C300
6700
3B80
0000
0000
0000
0000
ENDCHAR

STARTCHAR e
ENCODING 101
SWIDTH 917 0
DWIDTH 11 0
BBX 9 19 2 -4
BITMAP
0000
0000
0000
0000
0000
0000
0000
3C00
6600
C300
FF00
C000
C000
6300
3E00
0000
0000
0000
0000
ENDCHAR

STARTCHAR f
ENCODING 102
SWIDTH 917 0
DWIDTH 11 0
BBX 9 19 2 -4
BITMAP
0000
0000
0000
1E00
3000
3000
3000
FE00
3000
3000
3000
3000
3000
3000
FE00
0000
0000
0000
0000
ENDCHAR

STARTCHAR g
ENCODING 103
SWIDTH 917 0
DWIDTH 11 0
BBX 9 19 2 -4
BITMAP
0000
0000
0000
0000
0000
0000
0000
7D80
C600
C600
C600
7C00
C000
7F00
C180
C180
C300
7E00
0000
ENDCHAR

STARTCHAR h
ENCODING 104
SWIDTH 917 0
DWIDTH 11 0
BBX 10 19 1 -4
BITMAP
0000
0000
0000
6000
E000
6000
6000
6F00
7180
6180
6180
6180
6180
6180
F3C0
0000
0000
0000
0000
ENDCHAR

STARTCHAR i
ENCODING 105
SWIDTH 917 0
DWIDTH 11 0
BBX 9 19 2 -4
BITMAP
0000
0000
0000
1000
3800
1000
0000
1800
F800
1800
1800
1800
1800
1800
FF00
0000
0000
0000
0000
ENDCHAR

STARTCHAR j
ENCODING 106
SWIDTH 917 0
DWIDTH 11 0
BBX 10 19 1 -4
BITMAP
0000
0000
0000
0400
0E00
0400
0000
0600
3E00
0600
0600
0600
0600
0600
0600
0600
C600
7C00
0000
ENDCHAR

STARTCHAR k
ENCODING 107
SWIDTH 917 0
DWIDTH 11 0
BBX 10 19 1 -4
BITMAP
0000
0000
0000
6000
E000
6000
6000
6780
6200
6400
6800
7C00
6600
6300
F1C0
0000
0000
0000
0000
ENDCHAR

STARTCHAR l
ENCODING 108
SWIDTH 917 0
DWIDTH 11 0
BBX 8 19 3 -4
BITMAP
00
00
00
30
F0
30
30
30
30
30
30
30
30
30
FC
00
00
00
00
ENDCHAR

STARTCHAR m
ENCODING 109
SWIDTH 917 0
DWIDTH 11 0
BBX 11 19 0 -4
BITMAP
0000
0000
0000
0000
0000
0000
0000
6DC0
F760
6660
6660
6660
6660
6660
EEE0
0000
0000
0000
0000
ENDCHAR

STARTCHAR n
ENCODING 110
SWIDTH 917 0
DWIDTH 11 0
BBX 10 19 1 -4
BITMAP
0000
0000
0000
0000
0000
0000
0000
6F00
F180
6180
6180
6180
6180
6180
F3C0
0000
0000
0000
0000
ENDCHAR

STARTCHAR o
ENCODING 111
SWIDTH 917 0
DWIDTH 11 0
BBX 9 19 2 -4
BITMAP
0000
0000
0000
0000
0000
0000
0000
3C00
6600
C300
C300
C300
C300
6600
3C00
0000
0000
0000
0000
ENDCHAR

STARTCHAR p
ENCODING 112
SWIDTH 917 0
DWIDTH 11 0
BBX 10 19 1 -4
BITMAP
0000
0000
0000
0000
0000
0000
0000
6E00
F300
6180
6180
6180
6180
7300
6E00
6000
6000
F800
0000
ENDCHAR

STARTCHAR q
ENCODING 113
SWIDTH 917 0
DWIDTH 11 0
BBX 10 19 1 -4
BITMAP
0000
0000
0000
0000
0000
0000
0000
3D00
6300
C300
C300
C300
C300
6700
3B00
0300
0300
0F80
0000
ENDCHAR

STARTCHAR r
ENCODING 114
SWIDTH 917 0
DWIDTH 11 0
BBX 9 19 2 -4
BITMAP
0000
0000
0000
0000
0000
0000
0000
6700
EB00
7000
6000
6000
6000
6000
F800
0000
0000
0000
0000
ENDCHAR

STARTCHAR s
ENCODING 115
SWIDTH 917 0
DWIDTH 11 0
BBX 9 19 2 -4
BITMAP
0000
0000
0000
0000
0000
0000
0000
7E00
C300
C000
7800
0E00
0300
C300
7E00
0000
0000
0000
0000
ENDCHAR

STARTCHAR t
ENCODING 116
SWIDTH 917 0
DWIDTH 11 0
BBX 10 19 1 -4
BITMAP
0000
0000
0000
0000
3000
3000
3000
FF00
3000
3000
3000
3000
3000
3180
1F00
0000
0000
0000
0000
ENDCHAR

STARTCHAR u
ENCODING 117
SWIDTH 917 0
DWIDTH 11 0
BBX 10 19 1 -4
BITMAP
0000
0000
0000
0000
0000
0000
0000
6180
E380
6180
6180
6180
6180
63C0
3D80
0000
0000
0000
0000
ENDCHAR

STARTCHAR v
ENCODING 118
SWIDTH 917 0
DWIDTH 11 0
BBX 10 19 1 -4
BITMAP
0000
0000
0000
0000
0000
0000
0000
F3C0
6180
3100
3300
1A00
1E00
0C00
0C00
0000
0000
0000
0000
ENDCHAR

STARTCHAR w
ENCODING 119
SWIDTH 917 0
DWIDTH 11 0
BBX 11 19 0 -4
BITMAP
0000
0000
0000
0000
0000
0000
0000
E0E0
4040
64C0
6EC0
2A80
3B80
3180
3180
0000
0000
0000
0000
ENDCHAR

STARTCHAR x
ENCODING 120
SWIDTH 917 0
DWIDTH 11 0
BBX 10 19 1 -4
BITMAP
0000
0000
0000
0000
0000
0000
0000
F780
6300
3600
1C00
1C00
3600
6300
F780
0000
0000
0000
0000
ENDCHAR

STARTCHAR y
ENCODING 121
SWIDTH 917 0
DWIDTH 11 0
BBX 10 19 1 -4
BITMAP
0000
0000
0000
0000
0000
0000
0000
F3C0
6180
3100
3300
1A00
1E00
0C00
0C00
1800
D000
E000
0000
ENDCHAR

STARTCHAR z
ENCODING 122
SWIDTH 917 0
DWIDTH 11 0
BBX 9 19 2 -4
BITMAP
0000
0000
0000
0000
0000
0000
0000
FE00
8600
0C00
1800
3000
6000
C200
FE00
0000
0000
0000
0000
ENDCHAR

STARTCHAR OpenBrace
ENCODING 123
SWIDTH 917 0
DWIDTH 11 0
BBX 9 19 2 -4
BITMAP
0000
0000
0E00
1800
1800
1800
1800
3000
E000
3000
1800
1800
1800
1800
1800
0E00
0000
0000
0000
ENDCHAR

STARTCHAR LongVertMark
ENCODING 124
SWIDTH 917 0
DWIDTH 11 0
BBX 6 19 5 -4
BITMAP
00
00
C0
C0
C0
C0
C0
C0
C0
C0
C0
C0
C0
C0
C0
C0
00
00
00
ENDCHAR

STARTCHAR CloseBrace
ENCODING 125
SWIDTH 917 0
DWIDTH 11 0
BBX 8 19 3 -4
BITMAP
00
00
E0
30
30
30
30
18
0E
18
30
30
30
30
30
E0
00
00
00
ENDCHAR

STARTCHAR OneWavyLine
ENCODING 126
SWIDTH 917 0
DWIDTH 11 0
BBX 10 19 1 -4
BITMAP
0000
0000
0000
0000
0000
0000
0000
7080
FC80
9F80
8700
0000
0000
0000
0000
0000
0000
0000
0000
ENDCHAR

STARTCHAR Khah
ENCODING 127
SWIDTH 917 0
DWIDTH 11 0
BBX 11 19 0 -6
BITMAP
0000
1000
3800
1000
0000
0000
3800
7E00
4F80
03E0
1FE0
FE00
E000
0000
0000
0000
0000
0000
0000
ENDCHAR

STARTCHAR Lam
ENCODING 128
SWIDTH 917 0
DWIDTH 11 0
BBX 11 19 0 -6
BITMAP
6000
8000
F040
60C0
B0C0
39C0
0DC0
07C0
06C0
06C0
04C0
08E0
1060
6000
0000
0000
0000
0000
0000
ENDCHAR

STARTCHAR Line
ENCODING 129
SWIDTH 917 0
DWIDTH 11 0
BBX 11 19 0 -6
BITMAP
0000
0000
0000
0000
0000
0000
0000
0200
0400
0400
0600
07E0
03E0
0000
0000
0000
0000
0000
0000
ENDCHAR

STARTCHAR Descender
ENCODING 130
SWIDTH 917 0
DWIDTH 11 0
BBX 11 19 0 -6
BITMAP
0000
0000
0000
0000
0000
0000
0000
0000
0000
0000
0200
0400
0400
0400
0600
03E0
01E0
0000
0000
ENDCHAR

STARTCHAR Alef
ENCODING 131
SWIDTH 917 0
DWIDTH 11 0
BBX 11 19 0 -6
BITMAP
0060
1180
3660
3180
3600
3000
3000
3000
3000
3000
3800
1FE0
0FE0
0000
0000
0000
0000
0000
0000
ENDCHAR

STARTCHAR Line
ENCODING 132
SWIDTH 917 0
DWIDTH 11 0
BBX 11 19 0 -6
BITMAP
00C0
0140
19C0
2CE0
0D80
0E00
1800
0200
0400
0400
0600
07E0
03E0
0000
0000
0000
0000
0000
0000
ENDCHAR

STARTCHAR Kasratan
ENCODING 133
SWIDTH 917 0
DWIDTH 11 0
BBX 11 19 0 -6
BITMAP
0000
0000
0000
0000
0000
0000
0000
0200
0400
0400
0600
07E0
03E0
0000
0060
0180
0660
0180
0600
ENDCHAR

STARTCHAR Line
ENCODING 134
SWIDTH 917 0
DWIDTH 11 0
BBX 11 19 0 -6
BITMAP
0180
0600
1880
0280
0A80
0B00
0C00
0200
0400
0400
0600
07E0
03E0
0000
0000
0000
0000
0000
0000
ENDCHAR

STARTCHAR Line
ENCODING 135
SWIDTH 917 0
DWIDTH 11 0
BBX 11 19 0 -6
BITMAP
0C00
1400
1C00
3800
E400
1400
5400
5A00
6400
0400
0600
07E0
03E0
0000
0000
0000
0000
0000
0000
ENDCHAR

STARTCHAR Line
ENCODING 136
SWIDTH 917 0
DWIDTH 11 0
BBX 11 19 0 -6
BITMAP
0080
0280
0A80
0B00
0CC0
0300
0C00
0200
0400
0400
0600
07E0
03E0
0000
0000
0000
0000
0000
0000
ENDCHAR

STARTCHAR Line
ENCODING 137
SWIDTH 917 0
DWIDTH 11 0
BBX 11 19 0 -6
BITMAP
0000
0000
0060
0180
0600
0000
0000
0200
0400
0400
0600
07E0
03E0
0000
0000
0000
0000
0000
0000
ENDCHAR

STARTCHAR Line
ENCODING 138
SWIDTH 917 0
DWIDTH 11 0
BBX 11 19 0 -6
BITMAP
00C0
0140
01C0
00E0
0380
0E00
0000
0200
0400
0400
0600
07E0
03E0
0000
0000
0000
0000
0000
0000
ENDCHAR

STARTCHAR Kasra
ENCODING 139
SWIDTH 917 0
DWIDTH 11 0
BBX 11 19 0 -6
BITMAP
0000
0000
0000
0000
0000
0000
0000
0200
0400
0400
0600
07E0
03E0
0000
0000
0060
0180
0600
0000
ENDCHAR

STARTCHAR Line
ENCODING 140
SWIDTH 917 0
DWIDTH 11 0
BBX 11 19 0 -6
BITMAP
0000
00C0
0120
0120
00C0
0000
0000
0200
0400
0400
0600
07E0
03E0
0000
0000
0000
0000
0000
0000
ENDCHAR

STARTCHAR Line
ENCODING 141
SWIDTH 917 0
DWIDTH 11 0
BBX 11 19 0 -6
BITMAP
0000
0020
00A0
02A0
02C0
0300
0000
0200
0400
0400
0600
07E0
03E0
0000
0000
0000
0000
0000
0000
ENDCHAR

STARTCHAR Alef
ENCODING 142
SWIDTH 917 0
DWIDTH 11 0
BBX 11 19 0 -6
BITMAP
0300
0C00
3300
0C00
3200
0600
0600
0600
0600
0600
0600
0600
0600
0400
0000
0000
0000
0000
0000
ENDCHAR

STARTCHAR Desc
ENCODING 143
SWIDTH 917 0
DWIDTH 11 0
BBX 11 19 0 -6
BITMAP
0000
0000
00C0
0140
19C0
2CE0
0D80
0E00
1800
0000
0200
0400
0400
0400
0600
03E0
01E0
0000
0000
ENDCHAR

STARTCHAR Jeem
ENCODING 144
SWIDTH 917 0
DWIDTH 11 0
BBX 11 19 0 -6
BITMAP
0000
0000
0000
0000
0000
0000
0000
3C00
7FC0
8F80
1C00
3000
6200
6700
6200
6000
7040
3F80
1F00
ENDCHAR

STARTCHAR Hah
ENCODING 145
SWIDTH 917 0
DWIDTH 11 0
BBX 11 19 0 -6
BITMAP
0000
0000
0000
0000
0000
0000
0000
3C00
7FC0
8F80
1C00
3000
6000
6000
6000
6000
7040
3F80
1F00
ENDCHAR

STARTCHAR Kha
ENCODING 146
SWIDTH 917 0
DWIDTH 11 0
BBX 11 19 0 -6
BITMAP
0000
0000
0200
0700
0200
0000
0000
3C00
7FC0
8F80
1C00
3000
6000
6000
6000
6000
7040
3F80
1F00
ENDCHAR

STARTCHAR Teh
ENCODING 147
SWIDTH 917 0
DWIDTH 11 0
BBX 11 19 0 -6
BITMAP
0400
2E00
7500
2100
0300
0700
0F00
1900
3180
3980
3FC0
1EE0
0060
0000
0000
0000
0000
0000
0000
ENDCHAR

STARTCHAR Alef
ENCODING 148
SWIDTH 917 0
DWIDTH 11 0
BBX 11 19 0 -6
BITMAP
0000
0200
0600
0600
0600
0600
0600
0600
0600
0600
0700
03E0
01E0
0000
0000
0000
0000
0000
0000
ENDCHAR

STARTCHAR Yeh
ENCODING 149
SWIDTH 917 0
DWIDTH 11 0
BBX 11 19 0 -6
BITMAP
0000
0000
0000
0000
0000
0000
0000
0000
0000
2000
4000
40E0
81E0
8300
8380
C1C0
FFC0
7F80
3300
ENDCHAR

STARTCHAR Yeh
ENCODING 150
SWIDTH 917 0
DWIDTH 11 0
BBX 11 19 0 -6
BITMAP
0000
0000
0000
0E00
1800
1B00
0E00
3800
0000
2000
4000
40E0
81E0
8300
8380
C1C0
E0C0
7FC0
3F80
ENDCHAR

STARTCHAR Alef
ENCODING 151
SWIDTH 917 0
DWIDTH 11 0
BBX 11 19 0 -6
BITMAP
0000
0000
0000
0000
0000
0000
0000
0000
0000
2000
4000
40E0
81E0
8300
8380
C1C0
E0C0
7FC0
3F80
ENDCHAR

STARTCHAR Lam
ENCODING 152
SWIDTH 917 0
DWIDTH 11 0
BBX 11 19 0 -6
BITMAP
7000
C080
D8C0
70E0
D8C0
1CC0
06C0
02C0
03C0
0180
03C0
06C0
1DC0
1F80
0000
0000
0000
0000
0000
ENDCHAR

STARTCHAR Lam
ENCODING 153
SWIDTH 917 0
DWIDTH 11 0
BBX 11 19 0 -6
BITMAP
7200
9C80
60C0
70E0
38C0
0CC0
06C0
03C0
0180
03C0
06C0
1DC0
1F80
0000
0000
0000
0000
0000
0000
ENDCHAR

STARTCHAR Hamza
ENCODING 154
SWIDTH 917 0
DWIDTH 11 0
BBX 11 19 0 -6
BITMAP
0000
0080
60C0
70E0
38C0
0CC0
06C0
03C0
0180
03C0
06C0
1DC0
1F80
0000
3800
6000
6C00
3800
6000
ENDCHAR

STARTCHAR Lam
ENCODING 155
SWIDTH 917 0
DWIDTH 11 0
BBX 11 19 0 -6
BITMAP
0000
0080
60C0
70E0
38C0
0CC0
06C0
03C0
0180
03C0
06C0
1DC0
1F80
0000
0000
0000
0000
0000
0000
ENDCHAR

STARTCHAR Lam
ENCODING 156
SWIDTH 917 0
DWIDTH 11 0
BBX 11 19 0 -6
BITMAP
0000
0200
0600
0600
0600
0600
0600
0600
0600
0600
0700
FBE0
F1E0
0000
0000
0000
0000
0000
0000
ENDCHAR

STARTCHAR Alef
ENCODING 157
SWIDTH 917 0
DWIDTH 11 0
BBX 11 19 0 -6
BITMAP
7000
C200
DB00
7300
C300
0300
0300
0300
0300
0300
0380
01E0
00E0
0000
0000
0000
0000
0000
0000
ENDCHAR

STARTCHAR Alef
ENCODING 158
SWIDTH 917 0
DWIDTH 11 0
BBX 11 19 0 -6
BITMAP
0E40
1180
0400
0C00
0C00
0C00
0C00
0C00
0C00
0C00
0E00
07E0
03E0
0000
0000
0000
0000
0000
0000
ENDCHAR

STARTCHAR Hamza
ENCODING 159
SWIDTH 917 0
DWIDTH 11 0
BBX 11 19 0 -6
BITMAP
0000
0200
0600
0600
0600
0600
0600
0600
0600
0600
0700
03E0
01E0
0000
0E00
1800
1B00
0E00
1800
ENDCHAR

STARTCHAR Meem
ENCODING 161
SWIDTH 917 0
DWIDTH 11 0
BBX 11 19 0 -6
BITMAP
0000
0000
0000
0000
0000
0000
0000
0380
07C0
0CE0
3C60
FE60
E7E0
03C0
0000
0000
0000
0000
0000
ENDCHAR

STARTCHAR Noon
ENCODING 162
SWIDTH 917 0
DWIDTH 11 0
BBX 11 19 0 -6
BITMAP
0000
0000
0000
0400
0E00
0400
0000
0040
00E0
0060
0060
FFE0
FFC0
0000
0000
0000
0000
0000
0000
ENDCHAR

STARTCHAR Qaf
ENCODING 163
SWIDTH 917 0
DWIDTH 11 0
BBX 11 19 0 -6
BITMAP
0400
2E00
7400
2080
01C0
03E0
0260
0260
03E0
01A0
0060
FFE0
FFC0
0000
0000
0000
0000
0000
0000
ENDCHAR

STARTCHAR Yeh
ENCODING 164
SWIDTH 917 0
DWIDTH 11 0
BBX 11 19 0 -6
BITMAP
0000
0000
0000
0000
0000
0000
0000
0040
00E0
0060
0060
FFE0
FFC0
0000
0200
1700
3A00
1000
0000
ENDCHAR

STARTCHAR Seen
ENCODING 165
SWIDTH 917 0
DWIDTH 11 0
BBX 11 19 0 -6
BITMAP
0000
0000
0000
0000
0000
0000
0000
0040
44E0
4460
EE60
FFE0
BBC0
0000
0000
0000
0000
0000
0000
ENDCHAR

STARTCHAR Sheen
ENCODING 166
SWIDTH 917 0
DWIDTH 11 0
BBX 11 19 0 -6
BITMAP
0400
0E00
0400
1100
3B80
1100
0000
0040
44E0
4460
EE60
FFE0
BBC0
0000
0000
0000
0000
0000
0000
ENDCHAR

STARTCHAR Sad
ENCODING 167
SWIDTH 917 0
DWIDTH 11 0
BBX 11 19 0 -6
BITMAP
0000
0000
0000
0000
0000
0000
0000
03C0
47E0
4C60
E820
FFE0
BFC0
1000
1000
0000
0000
0000
0000
ENDCHAR

STARTCHAR Dad
ENCODING 168
SWIDTH 917 0
DWIDTH 11 0
BBX 11 19 0 -6
BITMAP
0000
0000
0000
0800
1C00
0800
0000
03C0
47E0
4C60
E820
FFE0
BFC0
1000
1000
0000
0000
0000
0000
ENDCHAR

STARTCHAR Shadda
ENCODING 169
SWIDTH 917 0
DWIDTH 11 0
BBX 11 19 0 -6
BITMAP
0000
00C0
0300
0C40
0140
0540
0580
0600
0000
0000
0000
FFE0
FFE0
0000
0000
0000
0000
0000
0000
ENDCHAR

STARTCHAR Jeem
ENCODING 170
SWIDTH 917 0
DWIDTH 11 0
BBX 11 19 0 -6
BITMAP
0000
0000
0000
0000
0000
0000
3800
7C00
4F00
03C0
1FC0
FE00
E000
0000
0400
0E00
0400
0000
0000
ENDCHAR

STARTCHAR Hah
ENCODING 171
SWIDTH 917 0
DWIDTH 11 0
BBX 11 19 0 -6
BITMAP
0000
0000
0000
0000
0000
0000
3800
7C00
4F00
03C0
1FC0
FE00
E000
0000
0000
0000
0000
0000
0000
ENDCHAR

STARTCHAR Arabic
ENCODING 172
SWIDTH 917 0
DWIDTH 11 0
BBX 11 19 0 -6
BITMAP
0000
0000
0000
0000
0000
0000
0000
0200
0400
0C00
0E00
0E00
0400
0000
0000
0000
0000
0000
0000
ENDCHAR

STARTCHAR Ain
ENCODING 173
SWIDTH 917 0
DWIDTH 11 0
BBX 11 19 0 -6
BITMAP
0000
0000
0000
0000
0000
0000
0000
0E00
1F00
1F00
0E00
FBE0
F1E0
0000
0000
0000
0000
0000
0000
ENDCHAR

STARTCHAR Ghain
ENCODING 174
SWIDTH 917 0
DWIDTH 11 0
BBX 11 19 0 -6
BITMAP
0000
0000
0400
0E00
0400
0000
0000
0E00
1F00
1F00
0E00
FBE0
F1E0
0000
0000
0000
0000
0000
0000
ENDCHAR

STARTCHAR Heh
ENCODING 175
SWIDTH 917 0
DWIDTH 11 0
BBX 11 19 0 -6
BITMAP
0000
0000
0000
0000
0600
0F00
0F00
1900
1100
1300
1600
FFE0
FFE0
1300
1180
1880
0F80
0F80
0700
ENDCHAR

STARTCHAR Arabic
ENCODING 176
SWIDTH 917 0
DWIDTH 11 0
BBX 11 19 0 -6
BITMAP
0000
0000
0000
0000
0000
0400
0E00
1F00
1F00
0E00
0400
0000
0000
0000
0000
0000
0000
0000
0000
ENDCHAR

STARTCHAR Arabic
ENCODING 177
SWIDTH 917 0
DWIDTH 11 0
BBX 11 19 0 -6
BITMAP
0000
1800
1C00
1C00
0E00
0600
0600
0300
0300
0300
0100
0100
0100
0000
0000
0000
0000
0000
0000
ENDCHAR

STARTCHAR Arabic
ENCODING 178
SWIDTH 917 0
DWIDTH 11 0
BBX 11 19 0 -6
BITMAP
0000
6040
70C0
7F80
3F00
1800
1800
0C00
0C00
0C00
0400
0400
0400
0000
0000
0000
0000
0000
0000
ENDCHAR

STARTCHAR Arabic
ENCODING 179
SWIDTH 917 0
DWIDTH 11 0
BBX 11 19 0 -6
BITMAP
0000
4440
6640
7FC0
3D80
1800
1800
0C00
0C00
0C00
0400
0400
0400
0000
0000
0000
0000
0000
0000
ENDCHAR

STARTCHAR Arabic
ENCODING 180
SWIDTH 917 0
DWIDTH 11 0
BBX 11 19 0 -6
BITMAP
0000
0700
0E00
1800
3C00
1E00
0F00
0600
0C00
1800
3000
3C00
1F80
0780
0000
0000
0000
0000
0000
ENDCHAR

STARTCHAR Arabic
ENCODING 181
SWIDTH 917 0
DWIDTH 11 0
BBX 11 19 0 -6
BITMAP
0000
0000
0000
1E00
3F00
6780
4380
4180
6180
7F00
3E00
0000
0000
0000
0000
0000
0000
0000
0000
ENDCHAR

STARTCHAR Arabic
ENCODING 182
SWIDTH 917 0
DWIDTH 11 0
BBX 11 19 0 -6
BITMAP
0000
4100
7F00
7F00
3E00
0200
0200
0300
0300
0380
01C0
01C0
00C0
0000
0000
0000
0000
0000
0000
ENDCHAR

STARTCHAR Arabic
ENCODING 183
SWIDTH 917 0
DWIDTH 11 0
BBX 11 19 0 -6
BITMAP
0000
60C0
71C0
71C0
3B80
1B00
1B00
0E00
0E00
0E00
0400
0400
0400
0000
0000
0000
0000
0000
0000
ENDCHAR

STARTCHAR Arabic
ENCODING 184
SWIDTH 917 0
DWIDTH 11 0
BBX 11 19 0 -6
BITMAP
0000
0400
0400
0400
0E00
0E00
0E00
1B00
1B00
3B80
71C0
71C0
60C0
0000
0000
0000
0000
0000
0000
ENDCHAR

STARTCHAR Arabic
ENCODING 185
SWIDTH 917 0
DWIDTH 11 0
BBX 11 19 0 -6
BITMAP
0000
1C00
3E00
6700
4300
6700
7F00
3B00
0300
0380
01C0
01C0
00C0
0000
0000
0000
0000
0000
0000
ENDCHAR

STARTCHAR Ghain
ENCODING 186
SWIDTH 917 0
DWIDTH 11 0
BBX 11 19 0 -6
BITMAP
0000
0000
0400
0E00
0400
0000
0000
0E00
1F00
1F00
0E00
1BE0
31E0
6000
6000
6000
7040
3F80
1F00
ENDCHAR

STARTCHAR Arabic
ENCODING 187
SWIDTH 917 0
DWIDTH 11 0
BBX 11 19 0 -6
BITMAP
0000
0000
0200
0400
0C00
0E00
0E00
0400
0000
0000
0400
0E00
0E00
0400
0000
0000
0000
0000
0000
ENDCHAR

STARTCHAR Kaf
ENCODING 188
SWIDTH 917 0
DWIDTH 11 0
BBX 11 19 0 -6
BITMAP
0000
00C0
03C0
0F00
3C00
7000
7000
3C00
0F00
03C0
00E0
FFE0
FFC0
0000
0000
0000
0000
0000
0000
ENDCHAR

STARTCHAR Lam
ENCODING 189
SWIDTH 917 0
DWIDTH 11 0
BBX 11 19 0 -6
BITMAP
0000
0000
0020
0060
0060
0060
0060
0060
0060
0060
00E0
FFE0
FFC0
0000
0000
0000
0000
0000
0000
ENDCHAR

STARTCHAR Hamza
ENCODING 190
SWIDTH 917 0
DWIDTH 11 0
BBX 11 19 0 -6
BITMAP
0000
0080
C180
E180
F180
5B80
0B80
0F80
0D80
0D80
19C0
30E0
C060
0000
7000
C000
D800
7000
C000
ENDCHAR

STARTCHAR Arabic
ENCODING 191
SWIDTH 917 0
DWIDTH 11 0
BBX 11 19 0 -6
BITMAP
0000
1F00
3B80
71C0
73C0
73C0
7180
3800
1C00
0E00
0600
0600
0000
0600
0F00
0600
0000
0000
0000
ENDCHAR

STARTCHAR Lam
ENCODING 192
SWIDTH 917 0
DWIDTH 11 0
BBX 11 19 0 -6
BITMAP
7900
9E40
00C0
60C0
70C0
79C0
2DC0
07C0
06C0
06C0
04E0
0860
1020
6000
0000
0000
0000
0000
0000
ENDCHAR

STARTCHAR Hamza
ENCODING 193
SWIDTH 917 0
DWIDTH 11 0
BBX 11 19 0 -6
BITMAP
0000
0000
0000
0000
0000
0000
0700
0F00
1900
1800
1C80
0F80
1E00
3000
0000
0000
0000
0000
0000
ENDCHAR

STARTCHAR Alef
ENCODING 194
SWIDTH 917 0
DWIDTH 11 0
BBX 11 19 0 -6
BITMAP
0600
0F00
12C0
0600
0600
0600
0600
0600
0600
0600
0600
0600
0600
0400
0000
0000
0000
0000
0000
ENDCHAR

STARTCHAR Alef
ENCODING 195
SWIDTH 917 0
DWIDTH 11 0
BBX 11 19 0 -6
BITMAP
0E00
1800
1B00
0E00
1A00
0600
0600
0600
0600
0600
0600
0600
0600
0600
0400
0000
0000
0000
0000
ENDCHAR

STARTCHAR Waw
ENCODING 196
SWIDTH 917 0
DWIDTH 11 0
BBX 19 19 2 -6
BITMAP
000000
380000
600000
6C0000
380000
600000
0E0000
0F0000
1B0000
118000
1F8000
1F8000
0D8000
038000
030000
0F0000
FE0000
3C0000
000000
ENDCHAR

STARTCHAR Hamza
ENCODING 197
SWIDTH 917 0
DWIDTH 11 0
BBX 11 19 0 -6
BITMAP
0000
0200
0600
0600
0600
0600
0600
0600
0600
0600
0600
0600
0400
0700
0F00
1800
1D80
0F00
1C00
ENDCHAR

STARTCHAR Yeh
ENCODING 198
SWIDTH 917 0
DWIDTH 11 0
BBX 11 19 0 -6
BITMAP
01C0
03C0
0600
0760
03C0
0700
0C00
0040
00E0
0060
0060
FFE0
FFC0
0000
0000
0000
0000
0000
0000
ENDCHAR

STARTCHAR Alef
ENCODING 199
SWIDTH 917 0
DWIDTH 11 0
BBX 11 19 0 -6
BITMAP
0000
0200
0600
0600
0600
0600
0600
0600
0600
0600
0600
0600
0600
0400
0000
0000
0000
0000
0000
ENDCHAR

STARTCHAR Beh
ENCODING 200
SWIDTH 917 0
DWIDTH 11 0
BBX 11 19 0 -6
BITMAP
0000
0000
0000
0000
0000
0000
0000
0040
00E0
0060
0060
FFE0
FFC0
0000
0200
0700
0200
0000
0000
ENDCHAR

STARTCHAR Teh
ENCODING 201
SWIDTH 917 0
DWIDTH 11 0
BBX 11 19 0 -6
BITMAP
0000
1100
3B80
1100
0000
0E00
1F00
3F80
3180
2080
3080
3F80
1F00
0000
0000
0000
0000
0000
0000
ENDCHAR

STARTCHAR Teh
ENCODING 202
SWIDTH 917 0
DWIDTH 11 0
BBX 11 19 0 -6
BITMAP
0000
0000
0200
1700
3A00
1000
0000
0040
00E0
0060
0060
FFE0
FFC0
0000
0000
0000
0000
0000
0000
ENDCHAR

STARTCHAR Theh
ENCODING 203
SWIDTH 917 0
DWIDTH 11 0
BBX 11 19 0 -6
BITMAP
0400
0E00
0400
1100
3B80
1100
0000
0040
00E0
0060
0060
FFE0
FFC0
0000
0000
0000
0000
0000
0000
ENDCHAR

STARTCHAR Jeem
ENCODING 204
SWIDTH 917 0
DWIDTH 11 0
BBX 11 19 0 -6
BITMAP
0000
0000
0000
0000
0000
0000
0000
3C00
7E00
4700
03C0
FFE0
FFE0
0000
0000
0800
1C00
0800
0000
ENDCHAR

STARTCHAR Hah
ENCODING 205
SWIDTH 917 0
DWIDTH 11 0
BBX 11 19 0 -6
BITMAP
0000
0000
0000
0000
0000
0000
0000
3C00
7E00
4700
03C0
FFE0
FFE0
0000
0000
0000
0000
0000
0000
ENDCHAR

STARTCHAR Khah
ENCODING 206
SWIDTH 917 0
DWIDTH 11 0
BBX 11 19 0 -6
BITMAP
0000
0000
1000
3800
1000
0000
0000
3C00
7E00
4700
03C0
FFE0
FFE0
0000
0000
0000
0000
0000
0000
ENDCHAR

STARTCHAR Dal
ENCODING 207
SWIDTH 917 0
DWIDTH 11 0
BBX 10 19 1 -6
BITMAP
0000
0000
0000
0000
0000
0600
0700
0780
0180
00C0
20C0
3FC0
1F80
0000
0000
0000
0000
0000
0000
ENDCHAR

STARTCHAR Thal
ENCODING 208
SWIDTH 917 0
DWIDTH 11 0
BBX 10 19 1 -6
BITMAP
0000
1000
3800
1000
0000
0600
0700
0780
0180
00C0
20C0
3FC0
1F80
0000
0000
0000
0000
0000
0000
ENDCHAR

STARTCHAR Ra
ENCODING 209
SWIDTH 917 0
DWIDTH 11 0
BBX 9 19 2 -6
BITMAP
0000
0000
0000
0000
0000
0000
0000
0000
0300
0300
0180
0180
0180
0380
0300
0F00
7E00
3C00
0000
ENDCHAR

STARTCHAR Zain
ENCODING 210
SWIDTH 917 0
DWIDTH 11 0
BBX 9 19 2 -6
BITMAP
0000
0000
0000
0400
0E00
0400
0000
0000
0300
0300
0180
0180
0180
0380
0300
0F00
7E00
3C00
0000
ENDCHAR

STARTCHAR Seen
ENCODING 211
SWIDTH 917 0
DWIDTH 11 0
BBX 11 19 0 -6
BITMAP
0000
0000
0000
0000
0000
0000
0000
0040
04E0
8460
CE60
7FE0
7BC0
4000
C000
C000
8000
0000
0000
ENDCHAR

STARTCHAR Sheen
ENCODING 212
SWIDTH 917 0
DWIDTH 11 0
BBX 11 19 0 -6
BITMAP
0800
1C00
0800
2200
7700
2200
0000
0040
04E0
8460
CE60
7FE0
7BC0
4000
C000
C000
8000
0000
0000
ENDCHAR

STARTCHAR Sad
ENCODING 213
SWIDTH 917 0
DWIDTH 11 0
BBX 11 19 0 -6
BITMAP
0000
0000
0000
0000
0000
0000
0000
01C0
03E0
8660
CC20
7FE0
7FC0
4800
C800
C000
8000
0000
0000
ENDCHAR

STARTCHAR Dad
ENCODING 214
SWIDTH 917 0
DWIDTH 11 0
BBX 11 19 0 -6
BITMAP
0000
0000
0400
0E00
0400
0000
0000
01C0
03E0
8660
CC20
7FE0
7FC0
4800
C800
C000
8000
0000
0000
ENDCHAR

STARTCHAR Tah
ENCODING 215
SWIDTH 917 0
DWIDTH 11 0
BBX 11 19 0 -6
BITMAP
0000
1000
3000
7000
3000
3000
3000
31C0
33E0
3660
3C20
FFE0
FFC0
0000
0000
0000
0000
0000
0000
ENDCHAR

STARTCHAR Zah
ENCODING 216
SWIDTH 917 0
DWIDTH 11 0
BBX 11 19 0 -6
BITMAP
0000
2000
3000
3900
3380
3100
3000
31C0
33E0
3660
3C20
FFE0
FFC0
0000
0000
0000
0000
0000
0000
ENDCHAR

STARTCHAR Ain
ENCODING 217
SWIDTH 917 0
DWIDTH 11 0
BBX 11 19 0 -6
BITMAP
0000
0000
0000
0000
1C00
3800
7000
6100
7600
3C00
1800
3000
3000
6000
6000
6000
7040
3F80
1F00
ENDCHAR

STARTCHAR Ghain
ENCODING 218
SWIDTH 917 0
DWIDTH 11 0
BBX 11 19 0 -6
BITMAP
1000
3800
1000
0000
1C00
3800
7000
6100
7600
3C00
1800
3000
3000
6000
6000
6000
7040
3F80
1F00
ENDCHAR

STARTCHAR Jeem
ENCODING 219
SWIDTH 917 0
DWIDTH 11 0
BBX 11 19 0 -6
BITMAP
0000
0000
0000
0000
0000
0000
0000
3C00
7FC0
8F80
1F00
31E0
60E0
6200
6700
6200
7020
3FC0
1F80
ENDCHAR

STARTCHAR Hah
ENCODING 220
SWIDTH 917 0
DWIDTH 11 0
BBX 11 19 0 -6
BITMAP
0000
0000
0000
0000
0000
0000
0000
3C00
7FC0
8F80
1E00
33E0
61E0
6000
6000
6000
7020
3FC0
1F80
ENDCHAR

STARTCHAR Khah
ENCODING 221
SWIDTH 917 0
DWIDTH 11 0
BBX 11 19 0 -6
BITMAP
0000
0000
0400
0E00
0400
0000
0000
3C00
7FC0
8F80
1E00
33E0
61E0
6000
6000
6000
7020
3FC0
1F80
ENDCHAR

STARTCHAR Shadda
ENCODING 222
SWIDTH 917 0
DWIDTH 11 0
BBX 11 19 0 -6
BITMAP
0000
0040
0140
0540
0580
0600
0000
0000
0000
0000
0000
FFE0
FFE0
0000
0000
0000
0000
0000
0000
ENDCHAR

STARTCHAR Yeh
ENCODING 223
SWIDTH 917 0
DWIDTH 11 0
BBX 11 19 0 -6
BITMAP
1C00
3400
6000
7600
3C00
7000
C0C0
23C0
47C0
4C00
8E00
8F80
83C0
80C0
C0C0
E1C0
7F80
3F00
0000
ENDCHAR

STARTCHAR Tatweel
ENCODING 224
SWIDTH 917 0
DWIDTH 11 0
BBX 11 19 0 -6
BITMAP
0000
0000
0000
0000
0000
0000
0000
0000
0000
0000
0000
FFE0
FFE0
0000
0000
0000
0000
0000
0000
ENDCHAR

STARTCHAR Feh
ENCODING 225
SWIDTH 917 0
DWIDTH 11 0
BBX 11 19 0 -6
BITMAP
0800
1C00
0800
0080
01C0
03E0
0260
0260
03E0
01E0
0060
FFE0
FFC0
0000
0000
0000
0000
0000
0000
ENDCHAR

STARTCHAR Qaf
ENCODING 226
SWIDTH 917 0
DWIDTH 11 0
BBX 11 19 0 -6
BITMAP
0000
0000
0100
0B80
1D00
0800
0000
0380
27C0
44C0
44E0
87E0
83E0
8060
C060
E0E0
7FC0
3F80
0000
ENDCHAR

STARTCHAR Kaf
ENCODING 227
SWIDTH 917 0
DWIDTH 11 0
BBX 11 19 0 -6
BITMAP
0000
0040
0060
0060
0660
0E60
1860
1C60
4660
9E60
8C60
8060
C0E0
FFC0
7F80
0000
0000
0000
0000
ENDCHAR

STARTCHAR Lam
ENCODING 228
SWIDTH 917 0
DWIDTH 11 0
BBX 11 19 0 -6
BITMAP
0000
0040
0060
00E0
0060
0060
0060
0060
0060
0060
1060
2060
4060
4060
4060
60E0
7FC0
3F80
0000
ENDCHAR

STARTCHAR Meem
ENCODING 229
SWIDTH 917 0
DWIDTH 11 0
BBX 11 19 0 -6
BITMAP
0000
0000
0000
0000
0000
0000
0700
0F80
0FC0
18E0
1060
0FE0
1FC0
1800
1800
1800
0C00
0C00
0600
ENDCHAR

STARTCHAR Noon
ENCODING 230
SWIDTH 917 0
DWIDTH 11 0
BBX 11 19 0 -6
BITMAP
0000
0000
0000
0000
0800
1C00
0800
0000
0180
21C0
40C0
4060
8060
8060
C060
E0E0
7FC0
3F80
0000
ENDCHAR

STARTCHAR Heh
ENCODING 231
SWIDTH 917 0
DWIDTH 11 0
BBX 11 19 0 -6
BITMAP
0000
0000
0000
0000
0000
0E00
1F00
3F80
3180
2080
3080
3F80
1F00
0000
0000
0000
0000
0000
0000
ENDCHAR

STARTCHAR Waw
ENCODING 232
SWIDTH 917 0
DWIDTH 11 0
BBX 11 19 0 -6
BITMAP
0000
0000
0000
0000
0000
0000
0380
03C0
06C0
0460
06E0
07E0
03E0
00E0
00C0
03C0
3F80
0F00
0000
ENDCHAR

STARTCHAR Alef
ENCODING 233
SWIDTH 917 0
DWIDTH 11 0
BBX 11 19 0 -6
BITMAP
0000
0000
0000
0000
0000
0000
00C0
23C0
47C0
4C00
8C00
8F80
83C0
C0C0
E1C0
7F80
3F00
0000
0000
ENDCHAR

STARTCHAR Yeh
ENCODING 234
SWIDTH 917 0
DWIDTH 11 0
BBX 11 19 0 -6
BITMAP
0000
0000
0000
0000
0000
0000
00C0
23C0
47C0
4C00
8C00
8F80
83C0
C0C0
FFC0
7F80
0000
3300
3300
ENDCHAR

STARTCHAR Fathatan
ENCODING 235
SWIDTH 917 0
DWIDTH 11 0
BBX 11 19 0 -6
BITMAP
0000
00C0
0300
0CC0
0300
0C00
0000
0000
0000
0000
0000
0000
0000
0000
0000
0000
0000
0000
0000
ENDCHAR

STARTCHAR Dammatan
ENCODING 236
SWIDTH 917 0
DWIDTH 11 0
BBX 11 19 0 -6
BITMAP
0000
0180
0280
3380
59C0
1B00
1C00
3000
0000
0000
0000
0000
0000
0000
0000
0000
0000
0000
0000
ENDCHAR

STARTCHAR Kasratan
ENCODING 237
SWIDTH 917 0
DWIDTH 11 0
BBX 11 19 0 -6
BITMAP
0000
0000
0000
0000
0000
0000
0000
0000
0000
0000
0000
0000
0000
0000
00C0
0300
0CC0
0300
0C00
ENDCHAR

STARTCHAR Fatha
ENCODING 238
SWIDTH 917 0
DWIDTH 11 0
BBX 11 19 0 -6
BITMAP
0000
00C0
0300
0C00
0000
0000
0000
0000
0000
0000
0000
0000
0000
0000
0000
0000
0000
0000
0000
ENDCHAR

STARTCHAR Damma
ENCODING 239
SWIDTH 917 0
DWIDTH 11 0
BBX 11 19 0 -6
BITMAP
0000
0180
0280
0380
01C0
0700
1C00
0000
0000
0000
0000
0000
0000
0000
0000
0000
0000
0000
0000
ENDCHAR

STARTCHAR Kasra
ENCODING 240
SWIDTH 917 0
DWIDTH 11 0
BBX 11 19 0 -6
BITMAP
0000
0000
0000
0000
0000
0000
0000
0000
0000
0000
0000
0000
0000
0000
0000
0000
0180
0600
1800
ENDCHAR

STARTCHAR Shadda
ENCODING 241
SWIDTH 917 0
DWIDTH 11 0
BBX 11 19 0 -6
BITMAP
0000
0080
0280
0A80
0B00
0C00
0000
0000
0000
0000
0000
0000
0000
0000
0000
0000
0000
0000
0000
ENDCHAR

STARTCHAR Sukun
ENCODING 242
SWIDTH 917 0
DWIDTH 11 0
BBX 11 19 0 -6
BITMAP
0000
0300
0480
0480
0300
0000
0000
0000
0000
0000
0000
0000
0000
0000
0000
0000
0000
0000
0000
ENDCHAR

STARTCHAR Ain
ENCODING 243
SWIDTH 917 0
DWIDTH 11 0
BBX 11 19 0 -6
BITMAP
0000
0000
0000
0000
0000
0E00
1F00
3000
3000
3980
1F80
FE00
F800
0000
0000
0000
0000
0000
0000
ENDCHAR

STARTCHAR Ghain
ENCODING 244
SWIDTH 917 0
DWIDTH 11 0
BBX 11 19 0 -6
BITMAP
0000
0800
1C00
0800
0000
0E00
1F00
3000
3000
3980
1F80
FE00
F800
0000
0000
0000
0000
0000
0000
ENDCHAR

STARTCHAR Heh
ENCODING 245
SWIDTH 917 0
DWIDTH 11 0
BBX 11 19 0 -6
BITMAP
0000
0000
0000
1000
3800
3C00
1E00
1700
2300
3580
1880
FF80
E700
0000
0000
0000
0000
0000
0000
ENDCHAR

STARTCHAR Shadda
ENCODING 246
SWIDTH 917 0
DWIDTH 11 0
BBX 11 19 0 -6
BITMAP
0180
0600
1880
0280
0A80
0B00
0C00
0000
0000
0000
0000
0000
0000
0000
0000
0000
0000
0000
0000
ENDCHAR

STARTCHAR Shadda
ENCODING 247
SWIDTH 917 0
DWIDTH 11 0
BBX 11 19 0 -6
BITMAP
0180
0280
0380
01C0
0700
1C80
0280
0A80
0B00
0C00
0000
0000
0000
0000
0000
0000
0000
0000
0000
ENDCHAR

STARTCHAR Kasra
ENCODING 248
SWIDTH 917 0
DWIDTH 11 0
BBX 11 19 0 -6
BITMAP
0080
0280
0A80
0B00
0CC0
0300
0C00
0000
0000
0000
0000
0000
0000
0000
0000
0000
0000
0000
0000
ENDCHAR

STARTCHAR Shadda
ENCODING 249
SWIDTH 917 0
DWIDTH 11 0
BBX 11 19 0 -6
BITMAP
0180
0280
0380
01C0
0700
1C80
0280
0A80
0B00
0C00
0000
FFE0
FFE0
0000
0000
0000
0000
0000
0000
ENDCHAR

STARTCHAR Kasra
ENCODING 250
SWIDTH 917 0
DWIDTH 11 0
BBX 11 19 0 -6
BITMAP
0080
0280
0A80
0B00
0CC0
0300
0C00
0000
0000
0000
0000
FFE0
FFE0
0000
0000
0000
0000
0000
0000
ENDCHAR

STARTCHAR Fatha
ENCODING 251
SWIDTH 917 0
DWIDTH 11 0
BBX 11 19 0 -6
BITMAP
0000
0000
0180
0600
1800
0000
0000
0000
0000
0000
0000
FFE0
FFE0
0000
0000
0000
0000
0000
0000
ENDCHAR

STARTCHAR Damma
ENCODING 252
SWIDTH 917 0
DWIDTH 11 0
BBX 11 19 0 -6
BITMAP
0000
0180
0280
0380
01C0
0700
1C00
0000
0000
0000
0000
FFE0
FFE0
0000
0000
0000
0000
0000
0000
ENDCHAR

STARTCHAR Kasra
ENCODING 253
SWIDTH 917 0
DWIDTH 11 0
BBX 11 19 0 -6
BITMAP
0000
0000
0000
0000
0000
0000
0000
0000
0000
0000
0000
FFE0
FFE0
0000
0000
00C0
0300
0C00
0000
ENDCHAR

STARTCHAR Sukun
ENCODING 254
SWIDTH 917 0
DWIDTH 11 0
BBX 11 19 0 -6
BITMAP
0000
0300
0480
0480
0300
0000
0000
0000
0000
0000
0000
FFE0
FFE0
0000
0000
0000
0000
0000
0000
ENDCHAR
ENDFONT
